<svg width="16" height="16" viewBox="0 0 16 16" fill="none" xmlns="http://www.w3.org/2000/svg">
    <path
        d="M6.6 2C5.85739 2 5.1452 2.30436 4.6201 2.84614C4.095 3.38791 3.8 4.12271 3.8 4.88889C3.8 5.65507 4.095 6.38987 4.6201 6.93164C5.1452 7.47341 5.85739 7.77778 6.6 7.77778C7.34261 7.77778 8.0548 7.47341 8.5799 6.93164C9.105 6.38987 9.4 5.65507 9.4 4.88889C9.4 4.12271 9.105 3.38791 8.5799 2.84614C8.0548 2.30436 7.34261 2 6.6 2ZM11.85 8.5C10.1 8.5 8.7 9.94444 8.7 11.75C8.7 13.5556 10.1 15 11.85 15C13.6 15 15 13.5556 15 11.75C15 9.94444 13.6 8.5 11.85 8.5ZM6.6 9.22222C3.506 9.22222 1 10.515 1 12.1111V13.5556H7.65C7.41895 12.9834 7.3 12.3698 7.3 11.75C7.303 10.8937 7.53296 10.0545 7.965 9.32333C7.524 9.26556 7.076 9.22222 6.6 9.22222ZM11.85 9.58333C13.012 9.58333 13.95 10.5511 13.95 11.75C13.95 12.1544 13.845 12.53 13.656 12.8333L10.8 9.88667C11.094 9.69167 11.458 9.58333 11.85 9.58333ZM10.044 10.6667L12.9 13.6133C12.606 13.8083 12.242 13.9167 11.85 13.9167C10.688 13.9167 9.75 12.9489 9.75 11.75C9.75 11.3456 9.855 10.97 10.044 10.6667Z"
        fill="white" />
</svg>