<svg width="16" height="16" viewBox="0 0 16 16" fill="none" xmlns="http://www.w3.org/2000/svg">
    <path
        d="M8.03337 12.6663L9.93337 10.783L8.03337 8.89967L7.33337 9.59967L8.05004 10.3163C7.73893 10.3275 7.43604 10.2775 7.14137 10.1663C6.84671 10.0552 6.58293 9.88301 6.35004 9.64968C6.12782 9.42745 5.95826 9.1719 5.84137 8.88301C5.72449 8.59412 5.66626 8.30523 5.66671 8.01634C5.66671 7.82745 5.69182 7.63856 5.74204 7.44967C5.79226 7.26079 5.8616 7.07745 5.95004 6.89967L5.21671 6.16634C5.02782 6.44412 4.88893 6.73856 4.80004 7.04967C4.71115 7.36079 4.66671 7.67745 4.66671 7.99967C4.66671 8.4219 4.75004 8.83856 4.91671 9.24967C5.08337 9.66079 5.32782 10.0275 5.65004 10.3497C5.97226 10.6719 6.33337 10.9137 6.73337 11.075C7.13337 11.2363 7.54449 11.3223 7.96671 11.333L7.33337 11.9663L8.03337 12.6663ZM10.7834 9.83301C10.9723 9.55523 11.1112 9.26079 11.2 8.94967C11.2889 8.63856 11.3334 8.3219 11.3334 7.99967C11.3334 7.57745 11.2527 7.1579 11.0914 6.74101C10.93 6.32412 10.6885 5.95479 10.3667 5.63301C10.0445 5.31079 9.68048 5.0719 9.27471 4.91634C8.86893 4.76079 8.45515 4.68301 8.03337 4.68301L8.66671 4.03301L7.96671 3.33301L6.06671 5.21634L7.96671 7.09967L8.66671 6.39967L7.93337 5.66634C8.23337 5.66634 8.53893 5.72479 8.85004 5.84167C9.16115 5.95856 9.42782 6.1279 9.65004 6.34967C9.87226 6.5719 10.0418 6.82745 10.1587 7.11634C10.2756 7.40523 10.3338 7.69412 10.3334 7.98301C10.3334 8.1719 10.3083 8.36079 10.258 8.54967C10.2078 8.73856 10.1385 8.9219 10.05 9.09967L10.7834 9.83301ZM8.00004 14.6663C7.07782 14.6663 6.21115 14.4912 5.40004 14.141C4.58893 13.7908 3.88337 13.3159 3.28337 12.7163C2.68337 12.1163 2.20849 11.4108 1.85871 10.5997C1.50893 9.78856 1.33382 8.9219 1.33337 7.99967C1.33337 7.07745 1.50849 6.21079 1.85871 5.39967C2.20893 4.58856 2.68382 3.88301 3.28337 3.28301C3.88337 2.68301 4.58893 2.20812 5.40004 1.85834C6.21115 1.50856 7.07782 1.33345 8.00004 1.33301C8.92226 1.33301 9.78893 1.50812 10.6 1.85834C11.4112 2.20856 12.1167 2.68345 12.7167 3.28301C13.3167 3.88301 13.7918 4.58856 14.142 5.39967C14.4923 6.21079 14.6672 7.07745 14.6667 7.99967C14.6667 8.9219 14.4916 9.78856 14.1414 10.5997C13.7912 11.4108 13.3163 12.1163 12.7167 12.7163C12.1167 13.3163 11.4112 13.7915 10.6 14.1417C9.78893 14.4919 8.92226 14.6668 8.00004 14.6663ZM8.00004 13.333C9.48893 13.333 10.75 12.8163 11.7834 11.783C12.8167 10.7497 13.3334 9.48856 13.3334 7.99967C13.3334 6.51079 12.8167 5.24967 11.7834 4.21634C10.75 3.18301 9.48893 2.66634 8.00004 2.66634C6.51115 2.66634 5.25004 3.18301 4.21671 4.21634C3.18337 5.24967 2.66671 6.51079 2.66671 7.99967C2.66671 9.48856 3.18337 10.7497 4.21671 11.783C5.25004 12.8163 6.51115 13.333 8.00004 13.333Z"
        fill="#FFF" />
</svg>