<svg width="20" height="20" viewBox="0 0 16 16" fill="none" xmlns="http://www.w3.org/2000/svg">
    <path
        d="M7.99325 1.33301C4.31325 1.33301 1.33325 4.31967 1.33325 7.99967C1.33325 11.6797 4.31325 14.6663 7.99325 14.6663C11.6799 14.6663 14.6666 11.6797 14.6666 7.99967C14.6666 4.31967 11.6799 1.33301 7.99325 1.33301ZM7.99992 13.333C5.05325 13.333 2.66659 10.9463 2.66659 7.99967C2.66659 5.05301 5.05325 2.66634 7.99992 2.66634C10.9466 2.66634 13.3333 5.05301 13.3333 7.99967C13.3333 10.9463 10.9466 13.333 7.99992 13.333ZM8.33325 4.66634H7.33325V8.66634L10.8333 10.7663L11.3333 9.94634L8.33325 8.16634V4.66634Z"
        fill="white" />
</svg>