<svg width="16" height="16" viewBox="0 0 16 16" fill="none" xmlns="http://www.w3.org/2000/svg">
    <path
        d="M6.26675 11L8.00008 9.26667L9.73342 11L10.6667 10.0667L8.93341 8.33333L10.6667 6.6L9.73342 5.66667L8.00008 7.4L6.26675 5.66667L5.33341 6.6L7.06675 8.33333L5.33341 10.0667L6.26675 11ZM4.66675 14C4.30008 14 3.98608 13.8693 3.72475 13.608C3.46341 13.3467 3.33297 13.0329 3.33341 12.6667V4H2.66675V2.66667H6.00008V2H10.0001V2.66667H13.3334V4H12.6667V12.6667C12.6667 13.0333 12.5361 13.3473 12.2747 13.6087C12.0134 13.87 11.6996 14.0004 11.3334 14H4.66675ZM11.3334 4H4.66675V12.6667H11.3334V4Z"
        fill="white" />
</svg>