<svg xmlns="http://www.w3.org/2000/svg" width="48" height="48" fill="none" id="telegram">
    <path fill="url(#a)" d="M24 48c13.255 0 24-10.745 24-24S37.255 0 24 0 0 10.745 0 24s10.745 24 24 24Z"></path>
    <path fill="#C8DAEA" d="M19.6 35c-.777 0-.645-.294-.914-1.034L16.4 26.441 34 16"></path>
    <path fill="#A9C9DD" d="M19.6 35c.6 0 .865-.275 1.2-.6l3.2-3.112-3.992-2.407"></path>
    <path fill="url(#b)"
        d="m20.008 28.882 9.672 7.146c1.104.609 1.9.294 2.175-1.025l3.937-18.552c.403-1.617-.616-2.35-1.672-1.87l-23.118 8.914c-1.578.633-1.569 1.513-.287 1.906l5.932 1.851 13.735-8.665c.648-.393 1.243-.181.755.252">
    </path>
    <defs>
        <linearGradient id="a" x1="18.002" x2="6.002" y1="2.002" y2="30" gradientUnits="userSpaceOnUse">
            <stop stop-color="#37AEE2"></stop>
            <stop offset="1" stop-color="#1E96C8"></stop>
        </linearGradient>
        <linearGradient id="b" x1="20.996" x2="23.56" y1="25.474" y2="33.769" gradientUnits="userSpaceOnUse">
            <stop stop-color="#EFF7FC"></stop>
            <stop offset="1" stop-color="#fff"></stop>
        </linearGradient>
    </defs>
</svg>