<svg width="13" height="12" viewBox="0 0 13 12" fill="none" xmlns="http://www.w3.org/2000/svg">
    <path
        d="M2.66669 2.00008C2.8435 2.00008 3.01307 1.92984 3.13809 1.80482C3.26312 1.67979 3.33335 1.51023 3.33335 1.33341C3.33335 1.1566 3.26312 0.987035 3.13809 0.86201C3.01307 0.736986 2.8435 0.666748 2.66669 0.666748H1.33335C1.15654 0.666748 0.986974 0.736986 0.861949 0.86201C0.736925 0.987035 0.666687 1.1566 0.666687 1.33341V10.6667C0.666687 10.8436 0.736925 11.0131 0.861949 11.1382C0.986974 11.2632 1.15654 11.3334 1.33335 11.3334H2.66669C2.8435 11.3334 3.01307 11.2632 3.13809 11.1382C3.26312 11.0131 3.33335 10.8436 3.33335 10.6667C3.33335 10.4899 3.26312 10.3204 3.13809 10.1953C3.01307 10.0703 2.8435 10.0001 2.66669 10.0001H2.00002V2.00008H2.66669ZM11.88 5.61341L10 2.94675C9.89806 2.80302 9.74335 2.70551 9.5697 2.67553C9.39606 2.64555 9.2176 2.68553 9.07335 2.78675C9.00125 2.83727 8.93987 2.90158 8.89276 2.97595C8.84564 3.05033 8.81373 3.1333 8.79885 3.22007C8.78397 3.30685 8.78643 3.39571 8.80609 3.48153C8.82574 3.56735 8.8622 3.64843 8.91335 3.72008L10.06 5.33341H4.66669C4.48988 5.33341 4.32031 5.40365 4.19528 5.52868C4.07026 5.6537 4.00002 5.82327 4.00002 6.00008C4.00002 6.17689 4.07026 6.34646 4.19528 6.47149C4.32031 6.59651 4.48988 6.66675 4.66669 6.66675H10L8.80002 8.26675C8.74749 8.33679 8.70927 8.41648 8.68754 8.50129C8.66582 8.5861 8.66101 8.67436 8.67339 8.76103C8.68577 8.8477 8.7151 8.93108 8.7597 9.00641C8.80431 9.08174 8.86332 9.14755 8.93335 9.20008C9.04875 9.28663 9.18911 9.33341 9.33335 9.33341C9.43685 9.33341 9.53893 9.30932 9.6315 9.26303C9.72407 9.21675 9.80459 9.14954 9.86669 9.06675L11.8667 6.40008C11.9521 6.28733 11.9994 6.15034 12.0018 6.00892C12.0042 5.86751 11.9615 5.729 11.88 5.61341Z"
        fill="white" />
</svg>